<svg width="123" height="35" viewBox="0 0 123 35" fill="none" xmlns="http://www.w3.org/2000/svg">
<path d="M7.34375 34L0.28125 10H5.10938L9.8125 27.625H10.0469L14.7656 10H19.5938L24.2813 27.5469H24.5156L29.1875 10H34.0156L26.9688 34H22.2031L17.3281 16.6719H16.9688L12.0938 34H7.34375ZM48.0625 34.4844C45.6979 34.4844 43.6615 33.9792 41.9531 32.9688C40.2552 31.9479 38.9427 30.5156 38.0156 28.6719C37.099 26.8177 36.6406 24.6458 36.6406 22.1562C36.6406 19.6979 37.099 17.5312 38.0156 15.6562C38.9427 13.7812 40.2344 12.3177 41.8906 11.2656C43.5573 10.2135 45.5052 9.6875 47.7344 9.6875C49.0885 9.6875 50.401 9.91146 51.6719 10.3594C52.9427 10.8073 54.0833 11.5104 55.0938 12.4687C56.1042 13.4271 56.901 14.6719 57.4844 16.2031C58.0677 17.724 58.3594 19.5729 58.3594 21.75V23.4062H39.2813V19.9062H53.7813C53.7813 18.6771 53.5313 17.5885 53.0313 16.6406C52.5313 15.6823 51.8281 14.9271 50.9219 14.375C50.026 13.8229 48.974 13.5469 47.7656 13.5469C46.4531 13.5469 45.3073 13.8698 44.3281 14.5156C43.3594 15.151 42.6094 15.9844 42.0781 17.0156C41.5573 18.0365 41.2969 19.1458 41.2969 20.3438V23.0781C41.2969 24.6823 41.5781 26.0469 42.1406 27.1719C42.7135 28.2969 43.5104 29.1562 44.5313 29.75C45.5521 30.3333 46.7448 30.625 48.1094 30.625C48.9948 30.625 49.8021 30.5 50.5313 30.25C51.2604 29.9896 51.8906 29.6042 52.4219 29.0937C52.9531 28.5833 53.3594 27.9531 53.6406 27.2031L58.0625 28C57.7083 29.3021 57.0729 30.4427 56.1563 31.4219C55.25 32.3906 54.1094 33.1458 52.7344 33.6875C51.3698 34.2188 49.8125 34.4844 48.0625 34.4844ZM72.5273 34.4688C70.5898 34.4688 68.8607 33.974 67.3398 32.9844C65.8294 31.9844 64.6419 30.5625 63.7773 28.7187C62.9232 26.8646 62.4961 24.6406 62.4961 22.0469C62.4961 19.4531 62.9284 17.2344 63.793 15.3906C64.668 13.5469 65.8659 12.1354 67.3867 11.1563C68.9076 10.1771 70.6315 9.6875 72.5586 9.6875C74.0482 9.6875 75.2461 9.9375 76.1523 10.4375C77.069 10.9271 77.7773 11.5 78.2773 12.1562C78.7878 12.8125 79.1836 13.3906 79.4648 13.8906H79.7461V2H84.418V34H79.8555V30.2656H79.4648C79.1836 30.776 78.7773 31.3594 78.2461 32.0156C77.7253 32.6719 77.0065 33.2448 76.0898 33.7344C75.1732 34.224 73.9857 34.4688 72.5273 34.4688ZM73.5586 30.4844C74.9023 30.4844 76.0378 30.1302 76.9648 29.4219C77.9023 28.7031 78.6107 27.7083 79.0898 26.4375C79.5794 25.1667 79.8242 23.6875 79.8242 22C79.8242 20.3333 79.5846 18.875 79.1055 17.625C78.6263 16.375 77.9232 15.401 76.9961 14.7031C76.069 14.0052 74.9232 13.6562 73.5586 13.6562C72.1523 13.6562 70.9805 14.0208 70.043 14.75C69.1055 15.4792 68.3971 16.474 67.918 17.7344C67.4492 18.9948 67.2148 20.4167 67.2148 22C67.2148 23.6042 67.4544 25.0469 67.9336 26.3281C68.4128 27.6094 69.1211 28.625 70.0586 29.375C71.0065 30.1146 72.1732 30.4844 73.5586 30.4844ZM91.0859 34V10H95.7578V34H91.0859ZM93.4453 6.29687C92.6328 6.29687 91.9349 6.02604 91.3516 5.48437C90.7786 4.93229 90.4922 4.27604 90.4922 3.51562C90.4922 2.74479 90.7786 2.08854 91.3516 1.54687C91.9349 0.994791 92.6328 0.718749 93.4453 0.718749C94.2578 0.718749 94.9505 0.994791 95.5234 1.54687C96.1068 2.08854 96.3984 2.74479 96.3984 3.51562C96.3984 4.27604 96.1068 4.93229 95.5234 5.48437C94.9505 6.02604 94.2578 6.29687 93.4453 6.29687ZM106.715 19.75V34H102.043V10H106.527V13.9062H106.824C107.376 12.6354 108.241 11.6146 109.418 10.8437C110.605 10.0729 112.1 9.6875 113.902 9.6875C115.538 9.6875 116.97 10.0313 118.199 10.7188C119.428 11.3958 120.382 12.4062 121.059 13.75C121.736 15.0937 122.074 16.7552 122.074 18.7344V34H117.402V19.2969C117.402 17.5573 116.949 16.1979 116.043 15.2187C115.137 14.2292 113.892 13.7344 112.309 13.7344C111.225 13.7344 110.262 13.9687 109.418 14.4375C108.585 14.9062 107.923 15.5937 107.434 16.5C106.954 17.3958 106.715 18.4792 106.715 19.75Z" fill="#343434"/>
</svg>
